# xmcd
#
# Track frame offsets:
#	150
#	13412
#	25111
#	36325
#	48265
#	61497
#	74454
#	87726
#	101704
#	114868
#	132599
#	145942
#	160741
#	171892
#
# Disc length: 2451 seconds
#
# Revision: 1
# Processed by: cddbd v1.5.2PL0 Copyright (c) Steve Scherf et al.
# Submitted via: audiograbber 1.83.01
#
DISCID=c909910e
DTITLE=Sam and Dave - Soul Man
DYEAR=2005
DGENRE=Soul
TTITLE0=Soul Man
TTITLE1=Can't You Find Another Way
TTITLE2=You Don't Know What You Mean To Me
TTITLE3=Soul Sister, Brown Sugar
TTITLE4=I Thank You
TTITLE5=I'll Be Doggone
TTITLE6=How Sweet It Is
TTITLE7=Summertime
TTITLE8=You Got Me Hummin'
TTITLE9=Cupid
TTITLE10=Funky Broadway
TTITLE11=When Something Is Wrong With My Baby
TTITLE12=Another Saturday Night
TTITLE13=Funky Street
EXTD=Sampler CD 1
EXTT0=
EXTT1=
EXTT2=
EXTT3=
EXTT4=
EXTT5=
EXTT6=
EXTT7=
EXTT8=
EXTT9=
EXTT10=
EXTT11=
EXTT12=
EXTT13=
PLAYORDER=
